<?xml version="1.0" encoding="UTF-8" standalone="no"?>
<!DOCTYPE svg PUBLIC "-//W3C//DTD SVG 1.1//EN"
 "http://www.w3.org/Graphics/SVG/1.1/DTD/svg11.dtd">
<!-- Generated by graphviz version 9.0.0 (20230911.1827)
 -->
<!-- Pages: 1 -->
<svg width="450pt" height="1340pt"
 viewBox="0.00 0.00 450.00 1340.00" xmlns="http://www.w3.org/2000/svg" xmlns:xlink="http://www.w3.org/1999/xlink">
<g id="graph0" class="graph" transform="scale(1 1) rotate(0) translate(4 1336)">
<polygon fill="white" stroke="none" points="-4,4 -4,-1336 446,-1336 446,4 -4,4"/>
<!-- 0 -->
<g id="node1" class="node">
<title>0</title>
<ellipse fill="none" stroke="black" cx="377" cy="-1314" rx="27" ry="18"/>
<text text-anchor="middle" x="377" y="-1308.58" font-family="Times New Roman,serif" font-size="14.00">0</text>
</g>
<!-- 1 -->
<g id="node2" class="node">
<title>1</title>
<ellipse fill="none" stroke="black" cx="321" cy="-1242" rx="27" ry="18"/>
<text text-anchor="middle" x="321" y="-1236.58" font-family="Times New Roman,serif" font-size="14.00">1</text>
</g>
<!-- 0&#45;&#45;1 -->
<g id="edge1" class="edge">
<title>0&#45;&#45;1</title>
<path fill="none" stroke="black" d="M360.74,-1299.5C350.07,-1288.14 336.9,-1271.84 328.48,-1259.67"/>
</g>
<!-- 9 -->
<g id="node3" class="node">
<title>9</title>
<ellipse fill="none" stroke="black" cx="313" cy="-522" rx="27" ry="18"/>
<text text-anchor="middle" x="313" y="-516.58" font-family="Times New Roman,serif" font-size="14.00">9</text>
</g>
<!-- 0&#45;&#45;9 -->
<g id="edge2" class="edge">
<title>0&#45;&#45;9</title>
<path fill="none" stroke="black" d="M382.78,-1295.93C396.01,-1270.09 424,-1218.97 424,-1171 424,-1171 424,-1171 424,-665 424,-605.45 361.67,-557.98 330.22,-536.11"/>
</g>
<!-- 1&#45;&#45;0 -->
<g id="edge3" class="edge">
<title>1&#45;&#45;0</title>
<path fill="none" stroke="black" d="M337.4,-1256.65C348.07,-1268.03 361.19,-1284.28 369.57,-1296.41"/>
</g>
<!-- 2 -->
<g id="node4" class="node">
<title>2</title>
<ellipse fill="none" stroke="black" cx="285" cy="-738" rx="27" ry="18"/>
<text text-anchor="middle" x="285" y="-732.58" font-family="Times New Roman,serif" font-size="14.00">2</text>
</g>
<!-- 1&#45;&#45;2 -->
<g id="edge4" class="edge">
<title>1&#45;&#45;2</title>
<path fill="none" stroke="black" d="M315.29,-1223.95C312,-1197.29 312,-1144.11 312,-1099 312,-1099 312,-1099 312,-881 312,-834.71 293.8,-782.47 286.52,-756.13"/>
</g>
<!-- 4 -->
<g id="node5" class="node">
<title>4</title>
<ellipse fill="none" stroke="black" cx="257" cy="-1170" rx="27" ry="18"/>
<text text-anchor="middle" x="257" y="-1164.58" font-family="Times New Roman,serif" font-size="14.00">4</text>
</g>
<!-- 1&#45;&#45;4 -->
<g id="edge5" class="edge">
<title>1&#45;&#45;4</title>
<path fill="none" stroke="black" d="M303.55,-1227.83C291.41,-1216.35 276,-1199.64 266.1,-1187.31"/>
</g>
<!-- 9&#45;&#45;0 -->
<g id="edge23" class="edge">
<title>9&#45;&#45;0</title>
<path fill="none" stroke="black" d="M335.22,-532.62C372.37,-552.61 442,-602.06 442,-665 442,-1171 442,-1171 442,-1171 442,-1220.82 411.8,-1274.05 392.19,-1298.81"/>
</g>
<!-- 10 -->
<g id="node8" class="node">
<title>10</title>
<ellipse fill="none" stroke="black" cx="313" cy="-450" rx="27" ry="18"/>
<text text-anchor="middle" x="313" y="-444.57" font-family="Times New Roman,serif" font-size="14.00">10</text>
</g>
<!-- 9&#45;&#45;10 -->
<g id="edge24" class="edge">
<title>9&#45;&#45;10</title>
<path fill="none" stroke="black" d="M307.12,-504.05C305.95,-493.05 305.96,-478.76 307.14,-467.79"/>
</g>
<!-- 21 -->
<g id="node16" class="node">
<title>21</title>
<ellipse fill="none" stroke="black" cx="281" cy="-594" rx="27" ry="18"/>
<text text-anchor="middle" x="281" y="-588.58" font-family="Times New Roman,serif" font-size="14.00">21</text>
</g>
<!-- 9&#45;&#45;21 -->
<g id="edge25" class="edge">
<title>9&#45;&#45;21</title>
<path fill="none" stroke="black" d="M311.07,-540.13C307,-551.65 300.05,-566.71 293.62,-577.81"/>
</g>
<!-- 2&#45;&#45;1 -->
<g id="edge6" class="edge">
<title>2&#45;&#45;1</title>
<path fill="none" stroke="black" d="M297.15,-754.43C311,-780.17 330,-833.7 330,-881 330,-1099 330,-1099 330,-1099 330,-1144.11 330,-1197.29 326.71,-1223.95"/>
</g>
<!-- 14 -->
<g id="node6" class="node">
<title>14</title>
<ellipse fill="none" stroke="black" cx="185" cy="-810" rx="27" ry="18"/>
<text text-anchor="middle" x="185" y="-804.58" font-family="Times New Roman,serif" font-size="14.00">14</text>
</g>
<!-- 2&#45;&#45;14 -->
<g id="edge7" class="edge">
<title>2&#45;&#45;14</title>
<path fill="none" stroke="black" d="M270.2,-753.25C253,-766.51 225.01,-785.99 205.69,-798.06"/>
</g>
<!-- 4&#45;&#45;1 -->
<g id="edge10" class="edge">
<title>4&#45;&#45;1</title>
<path fill="none" stroke="black" d="M274.15,-1183.88C286.36,-1195.4 301.98,-1212.33 311.96,-1224.76"/>
</g>
<!-- 3 -->
<g id="node7" class="node">
<title>3</title>
<ellipse fill="none" stroke="black" cx="377" cy="-378" rx="27" ry="18"/>
<text text-anchor="middle" x="377" y="-372.57" font-family="Times New Roman,serif" font-size="14.00">3</text>
</g>
<!-- 4&#45;&#45;3 -->
<g id="edge11" class="edge">
<title>4&#45;&#45;3</title>
<path fill="none" stroke="black" d="M274.22,-1155.89C305.67,-1134.02 368,-1086.55 368,-1027 368,-1027 368,-1027 368,-521 368,-475.89 368,-422.71 371.29,-396.05"/>
</g>
<!-- 5 -->
<g id="node9" class="node">
<title>5</title>
<ellipse fill="none" stroke="black" cx="257" cy="-810" rx="27" ry="18"/>
<text text-anchor="middle" x="257" y="-804.58" font-family="Times New Roman,serif" font-size="14.00">5</text>
</g>
<!-- 4&#45;&#45;5 -->
<g id="edge12" class="edge">
<title>4&#45;&#45;5</title>
<path fill="none" stroke="black" d="M251.29,-1151.95C248,-1125.29 248,-1072.11 248,-1027 248,-1027 248,-1027 248,-953 248,-907.89 248,-854.71 251.29,-828.05"/>
</g>
<!-- 7 -->
<g id="node10" class="node">
<title>7</title>
<ellipse fill="none" stroke="black" cx="101" cy="-1098" rx="27" ry="18"/>
<text text-anchor="middle" x="101" y="-1092.58" font-family="Times New Roman,serif" font-size="14.00">7</text>
</g>
<!-- 4&#45;&#45;7 -->
<g id="edge13" class="edge">
<title>4&#45;&#45;7</title>
<path fill="none" stroke="black" d="M233.6,-1160.56C202.86,-1147.97 149.89,-1124.29 120.95,-1110.25"/>
</g>
<!-- 14&#45;&#45;2 -->
<g id="edge40" class="edge">
<title>14&#45;&#45;2</title>
<path fill="none" stroke="black" d="M199.69,-794.83C216.89,-781.57 244.96,-762.03 264.32,-749.93"/>
</g>
<!-- 13 -->
<g id="node11" class="node">
<title>13</title>
<ellipse fill="none" stroke="black" cx="157" cy="-882" rx="27" ry="18"/>
<text text-anchor="middle" x="157" y="-876.58" font-family="Times New Roman,serif" font-size="14.00">13</text>
</g>
<!-- 14&#45;&#45;13 -->
<g id="edge41" class="edge">
<title>14&#45;&#45;13</title>
<path fill="none" stroke="black" d="M183.95,-828.46C180.56,-839.82 174.62,-854.51 168.93,-865.46"/>
</g>
<!-- 23 -->
<g id="node21" class="node">
<title>23</title>
<ellipse fill="none" stroke="black" cx="185" cy="-738" rx="27" ry="18"/>
<text text-anchor="middle" x="185" y="-732.58" font-family="Times New Roman,serif" font-size="14.00">23</text>
</g>
<!-- 14&#45;&#45;23 -->
<g id="edge42" class="edge">
<title>14&#45;&#45;23</title>
<path fill="none" stroke="black" d="M179.12,-792.05C177.95,-781.05 177.96,-766.76 179.14,-755.79"/>
</g>
<!-- 3&#45;&#45;4 -->
<g id="edge8" class="edge">
<title>3&#45;&#45;4</title>
<path fill="none" stroke="black" d="M382.71,-396.05C386,-422.71 386,-475.89 386,-521 386,-1027 386,-1027 386,-1027 386,-1089.94 316.37,-1139.39 279.22,-1159.38"/>
</g>
<!-- 3&#45;&#45;10 -->
<g id="edge9" class="edge">
<title>3&#45;&#45;10</title>
<path fill="none" stroke="black" d="M367.9,-395.31C358,-407.64 342.59,-424.35 330.45,-435.83"/>
</g>
<!-- 10&#45;&#45;9 -->
<g id="edge27" class="edge">
<title>10&#45;&#45;9</title>
<path fill="none" stroke="black" d="M318.86,-467.79C320.04,-478.76 320.05,-493.05 318.88,-504.05"/>
</g>
<!-- 10&#45;&#45;3 -->
<g id="edge26" class="edge">
<title>10&#45;&#45;3</title>
<path fill="none" stroke="black" d="M322.04,-432.76C332.02,-420.33 347.64,-403.4 359.85,-391.88"/>
</g>
<!-- 11 -->
<g id="node13" class="node">
<title>11</title>
<ellipse fill="none" stroke="black" cx="201" cy="-90" rx="27" ry="18"/>
<text text-anchor="middle" x="201" y="-84.58" font-family="Times New Roman,serif" font-size="14.00">11</text>
</g>
<!-- 10&#45;&#45;11 -->
<g id="edge28" class="edge">
<title>10&#45;&#45;11</title>
<path fill="none" stroke="black" d="M307.29,-431.95C304,-405.29 304,-352.11 304,-307 304,-307 304,-307 304,-233 304,-175.23 246.14,-127.15 216.94,-104.67"/>
</g>
<!-- 18 -->
<g id="node17" class="node">
<title>18</title>
<ellipse fill="none" stroke="black" cx="249" cy="-378" rx="27" ry="18"/>
<text text-anchor="middle" x="249" y="-372.57" font-family="Times New Roman,serif" font-size="14.00">18</text>
</g>
<!-- 10&#45;&#45;18 -->
<g id="edge29" class="edge">
<title>10&#45;&#45;18</title>
<path fill="none" stroke="black" d="M295.55,-435.83C283.41,-424.35 268,-407.64 258.1,-395.31"/>
</g>
<!-- 5&#45;&#45;4 -->
<g id="edge14" class="edge">
<title>5&#45;&#45;4</title>
<path fill="none" stroke="black" d="M262.71,-828.05C266,-854.71 266,-907.89 266,-953 266,-1027 266,-1027 266,-1027 266,-1072.11 266,-1125.29 262.71,-1151.95"/>
</g>
<!-- 5&#45;&#45;13 -->
<g id="edge15" class="edge">
<title>5&#45;&#45;13</title>
<path fill="none" stroke="black" d="M242.2,-825.25C225,-838.51 197.01,-857.99 177.69,-870.06"/>
</g>
<!-- 7&#45;&#45;4 -->
<g id="edge18" class="edge">
<title>7&#45;&#45;4</title>
<path fill="none" stroke="black" d="M124.36,-1107.43C154.98,-1119.96 207.71,-1143.53 236.73,-1157.6"/>
</g>
<!-- 6 -->
<g id="node12" class="node">
<title>6</title>
<ellipse fill="none" stroke="black" cx="105" cy="-18" rx="27" ry="18"/>
<text text-anchor="middle" x="105" y="-12.57" font-family="Times New Roman,serif" font-size="14.00">6</text>
</g>
<!-- 7&#45;&#45;6 -->
<g id="edge19" class="edge">
<title>7&#45;&#45;6</title>
<path fill="none" stroke="black" d="M81.42,-1085.39C51.75,-1063.07 0,-1011.4 0,-955 0,-955 0,-955 0,-161 0,-103.86 54,-52.56 84.8,-30.47"/>
</g>
<!-- 8 -->
<g id="node14" class="node">
<title>8</title>
<ellipse fill="none" stroke="black" cx="101" cy="-1026" rx="27" ry="18"/>
<text text-anchor="middle" x="101" y="-1020.58" font-family="Times New Roman,serif" font-size="14.00">8</text>
</g>
<!-- 7&#45;&#45;8 -->
<g id="edge20" class="edge">
<title>7&#45;&#45;8</title>
<path fill="none" stroke="black" d="M95.12,-1080.05C93.95,-1069.05 93.96,-1054.76 95.14,-1043.79"/>
</g>
<!-- 13&#45;&#45;14 -->
<g id="edge38" class="edge">
<title>13&#45;&#45;14</title>
<path fill="none" stroke="black" d="M158.01,-863.7C161.42,-852.2 167.48,-837.24 173.24,-826.2"/>
</g>
<!-- 13&#45;&#45;5 -->
<g id="edge36" class="edge">
<title>13&#45;&#45;5</title>
<path fill="none" stroke="black" d="M171.69,-866.83C188.89,-853.57 216.96,-834.03 236.32,-821.93"/>
</g>
<!-- 12 -->
<g id="node15" class="node">
<title>12</title>
<ellipse fill="none" stroke="black" cx="101" cy="-954" rx="27" ry="18"/>
<text text-anchor="middle" x="101" y="-948.58" font-family="Times New Roman,serif" font-size="14.00">12</text>
</g>
<!-- 13&#45;&#45;12 -->
<g id="edge37" class="edge">
<title>13&#45;&#45;12</title>
<path fill="none" stroke="black" d="M149.52,-899.67C141.1,-911.84 127.93,-928.14 117.26,-939.5"/>
</g>
<!-- 20 -->
<g id="node20" class="node">
<title>20</title>
<ellipse fill="none" stroke="black" cx="129" cy="-234" rx="27" ry="18"/>
<text text-anchor="middle" x="129" y="-228.57" font-family="Times New Roman,serif" font-size="14.00">20</text>
</g>
<!-- 13&#45;&#45;20 -->
<g id="edge39" class="edge">
<title>13&#45;&#45;20</title>
<path fill="none" stroke="black" d="M144.85,-865.57C131,-839.83 112,-786.3 112,-739 112,-739 112,-739 112,-377 112,-331.57 116.13,-278.09 121.8,-251.6"/>
</g>
<!-- 6&#45;&#45;7 -->
<g id="edge16" class="edge">
<title>6&#45;&#45;7</title>
<path fill="none" stroke="black" d="M91.75,-33.77C67.06,-57.38 18,-106.54 18,-161 18,-955 18,-955 18,-955 18,-1008.46 64.5,-1057.68 88.15,-1081.67"/>
</g>
<!-- 6&#45;&#45;11 -->
<g id="edge17" class="edge">
<title>6&#45;&#45;11</title>
<path fill="none" stroke="black" d="M125.56,-30.26C144.05,-42.28 170.38,-61.36 186.7,-74.5"/>
</g>
<!-- 11&#45;&#45;10 -->
<g id="edge31" class="edge">
<title>11&#45;&#45;10</title>
<path fill="none" stroke="black" d="M222.61,-101.23C257.68,-121.95 322,-172.09 322,-233 322,-307 322,-307 322,-307 322,-352.11 322,-405.29 318.71,-431.95"/>
</g>
<!-- 11&#45;&#45;6 -->
<g id="edge30" class="edge">
<title>11&#45;&#45;6</title>
<path fill="none" stroke="black" d="M180.46,-77.75C162.03,-65.77 135.79,-46.76 119.45,-33.63"/>
</g>
<!-- 15 -->
<g id="node18" class="node">
<title>15</title>
<ellipse fill="none" stroke="black" cx="201" cy="-162" rx="27" ry="18"/>
<text text-anchor="middle" x="201" y="-156.57" font-family="Times New Roman,serif" font-size="14.00">15</text>
</g>
<!-- 11&#45;&#45;15 -->
<g id="edge32" class="edge">
<title>11&#45;&#45;15</title>
<path fill="none" stroke="black" d="M206.86,-107.79C208.04,-118.76 208.05,-133.05 206.88,-144.05"/>
</g>
<!-- 8&#45;&#45;7 -->
<g id="edge21" class="edge">
<title>8&#45;&#45;7</title>
<path fill="none" stroke="black" d="M106.86,-1043.79C108.04,-1054.76 108.05,-1069.05 106.88,-1080.05"/>
</g>
<!-- 8&#45;&#45;12 -->
<g id="edge22" class="edge">
<title>8&#45;&#45;12</title>
<path fill="none" stroke="black" d="M95.12,-1008.05C93.95,-997.05 93.96,-982.76 95.14,-971.79"/>
</g>
<!-- 12&#45;&#45;13 -->
<g id="edge34" class="edge">
<title>12&#45;&#45;13</title>
<path fill="none" stroke="black" d="M108.43,-936.41C116.81,-924.28 129.93,-908.03 140.6,-896.65"/>
</g>
<!-- 12&#45;&#45;8 -->
<g id="edge33" class="edge">
<title>12&#45;&#45;8</title>
<path fill="none" stroke="black" d="M106.86,-971.79C108.04,-982.76 108.05,-997.05 106.88,-1008.05"/>
</g>
<!-- 17 -->
<g id="node19" class="node">
<title>17</title>
<ellipse fill="none" stroke="black" cx="101" cy="-162" rx="27" ry="18"/>
<text text-anchor="middle" x="101" y="-156.57" font-family="Times New Roman,serif" font-size="14.00">17</text>
</g>
<!-- 12&#45;&#45;17 -->
<g id="edge35" class="edge">
<title>12&#45;&#45;17</title>
<path fill="none" stroke="black" d="M88.85,-937.57C75,-911.83 56,-858.3 56,-811 56,-811 56,-811 56,-305 56,-257.7 75,-204.17 88.85,-178.43"/>
</g>
<!-- 21&#45;&#45;9 -->
<g id="edge58" class="edge">
<title>21&#45;&#45;9</title>
<path fill="none" stroke="black" d="M282.99,-575.7C287.06,-564.2 293.98,-549.24 300.37,-538.2"/>
</g>
<!-- 22 -->
<g id="node24" class="node">
<title>22</title>
<ellipse fill="none" stroke="black" cx="185" cy="-666" rx="27" ry="18"/>
<text text-anchor="middle" x="185" y="-660.58" font-family="Times New Roman,serif" font-size="14.00">22</text>
</g>
<!-- 21&#45;&#45;22 -->
<g id="edge59" class="edge">
<title>21&#45;&#45;22</title>
<path fill="none" stroke="black" d="M266.55,-609.63C250.21,-622.76 223.97,-641.77 205.54,-653.75"/>
</g>
<!-- 18&#45;&#45;10 -->
<g id="edge50" class="edge">
<title>18&#45;&#45;10</title>
<path fill="none" stroke="black" d="M266.15,-391.88C278.36,-403.4 293.98,-420.33 303.96,-432.76"/>
</g>
<!-- 19 -->
<g id="node23" class="node">
<title>19</title>
<ellipse fill="none" stroke="black" cx="193" cy="-306" rx="27" ry="18"/>
<text text-anchor="middle" x="193" y="-300.57" font-family="Times New Roman,serif" font-size="14.00">19</text>
</g>
<!-- 18&#45;&#45;19 -->
<g id="edge51" class="edge">
<title>18&#45;&#45;19</title>
<path fill="none" stroke="black" d="M232.74,-363.5C222.07,-352.14 208.9,-335.84 200.48,-323.67"/>
</g>
<!-- 15&#45;&#45;11 -->
<g id="edge43" class="edge">
<title>15&#45;&#45;11</title>
<path fill="none" stroke="black" d="M195.12,-144.05C193.95,-133.05 193.96,-118.76 195.14,-107.79"/>
</g>
<!-- 16 -->
<g id="node22" class="node">
<title>16</title>
<ellipse fill="none" stroke="black" cx="201" cy="-234" rx="27" ry="18"/>
<text text-anchor="middle" x="201" y="-228.57" font-family="Times New Roman,serif" font-size="14.00">16</text>
</g>
<!-- 15&#45;&#45;16 -->
<g id="edge44" class="edge">
<title>15&#45;&#45;16</title>
<path fill="none" stroke="black" d="M206.86,-179.79C208.04,-190.76 208.05,-205.05 206.88,-216.05"/>
</g>
<!-- 17&#45;&#45;12 -->
<g id="edge48" class="edge">
<title>17&#45;&#45;12</title>
<path fill="none" stroke="black" d="M99.48,-180.13C92.2,-206.47 74,-258.71 74,-305 74,-811 74,-811 74,-811 74,-857.29 92.2,-909.53 99.48,-935.87"/>
</g>
<!-- 17&#45;&#45;16 -->
<g id="edge49" class="edge">
<title>17&#45;&#45;16</title>
<path fill="none" stroke="black" d="M121.68,-173.93C141.04,-186.03 169.11,-205.57 186.31,-218.83"/>
</g>
<!-- 20&#45;&#45;13 -->
<g id="edge56" class="edge">
<title>20&#45;&#45;13</title>
<path fill="none" stroke="black" d="M133.13,-252.03C134.09,-278.67 130,-331.81 130,-377 130,-739 130,-739 130,-739 130,-785.29 148.2,-837.53 155.48,-863.87"/>
</g>
<!-- 20&#45;&#45;19 -->
<g id="edge57" class="edge">
<title>20&#45;&#45;19</title>
<path fill="none" stroke="black" d="M146.15,-247.88C158.36,-259.4 173.98,-276.33 183.96,-288.76"/>
</g>
<!-- 23&#45;&#45;14 -->
<g id="edge63" class="edge">
<title>23&#45;&#45;14</title>
<path fill="none" stroke="black" d="M190.86,-755.79C192.04,-766.76 192.05,-781.05 190.88,-792.05"/>
</g>
<!-- 23&#45;&#45;22 -->
<g id="edge64" class="edge">
<title>23&#45;&#45;22</title>
<path fill="none" stroke="black" d="M179.12,-720.05C177.95,-709.05 177.96,-694.76 179.14,-683.79"/>
</g>
<!-- 16&#45;&#45;15 -->
<g id="edge45" class="edge">
<title>16&#45;&#45;15</title>
<path fill="none" stroke="black" d="M195.12,-216.05C193.95,-205.05 193.96,-190.76 195.14,-179.79"/>
</g>
<!-- 16&#45;&#45;17 -->
<g id="edge46" class="edge">
<title>16&#45;&#45;17</title>
<path fill="none" stroke="black" d="M180.31,-222.06C160.99,-209.99 133,-190.51 115.8,-177.25"/>
</g>
<!-- 16&#45;&#45;19 -->
<g id="edge47" class="edge">
<title>16&#45;&#45;19</title>
<path fill="none" stroke="black" d="M204.94,-251.96C204.85,-263.03 203.19,-277.41 200.74,-288.41"/>
</g>
<!-- 19&#45;&#45;18 -->
<g id="edge53" class="edge">
<title>19&#45;&#45;18</title>
<path fill="none" stroke="black" d="M209.4,-320.65C220.07,-332.03 233.19,-348.28 241.57,-360.41"/>
</g>
<!-- 19&#45;&#45;20 -->
<g id="edge54" class="edge">
<title>19&#45;&#45;20</title>
<path fill="none" stroke="black" d="M175.55,-291.83C163.41,-280.35 148,-263.64 138.1,-251.31"/>
</g>
<!-- 19&#45;&#45;16 -->
<g id="edge52" class="edge">
<title>19&#45;&#45;16</title>
<path fill="none" stroke="black" d="M189.06,-287.7C189.18,-276.68 190.83,-262.5 193.26,-251.62"/>
</g>
<!-- 19&#45;&#45;22 -->
<g id="edge55" class="edge">
<title>19&#45;&#45;22</title>
<path fill="none" stroke="black" d="M197.13,-324.03C198.09,-350.67 194,-403.81 194,-449 194,-523 194,-523 194,-523 194,-568.11 194,-621.29 190.71,-647.95"/>
</g>
<!-- 22&#45;&#45;21 -->
<g id="edge61" class="edge">
<title>22&#45;&#45;21</title>
<path fill="none" stroke="black" d="M199.3,-650.5C215.62,-637.36 241.95,-618.28 260.44,-606.26"/>
</g>
<!-- 22&#45;&#45;23 -->
<g id="edge62" class="edge">
<title>22&#45;&#45;23</title>
<path fill="none" stroke="black" d="M190.86,-683.79C192.04,-694.76 192.05,-709.05 190.88,-720.05"/>
</g>
<!-- 22&#45;&#45;19 -->
<g id="edge60" class="edge">
<title>22&#45;&#45;19</title>
<path fill="none" stroke="black" d="M179.29,-647.95C176,-621.29 176,-568.11 176,-523 176,-523 176,-523 176,-449 176,-403.57 180.13,-350.09 185.8,-323.6"/>
</g>
</g>
</svg>
